# xmcd CD database file
#
# Track frame offsets:
#	150
#	32665
#	57027
#	84682
#	115000
#	144522
#	173210
#	198682
#	229632
#	248232
#	282080
#
# Disc length: 4057 seconds
#
# Revision: 0
# Processed by: cddbd v1.4PL0 Copyright (c) Steve Scherf et al.
# Submitted via: CDex 1.50Beta1
#
DISCID=930fd70b
DTITLE=Mike Stern - Play
DYEAR=1999
DGENRE=Jazz
TTITLE0=Play
TTITLE1=Small World
TTITLE2=Outta Town
TTITLE3=Blue Tone
TTITLE4=Tipatina's
TTITLE5=All Heart
TTITLE6=Frizz
TTITLE7=Link
TTITLE8=Goin' Under
TTITLE9=Big Kids
TTITLE10=I'm with You
EXTD=YEAR: 1999
EXTT0=
EXTT1=
EXTT2=
EXTT3=
EXTT4=
EXTT5=
EXTT6=
EXTT7=
EXTT8=
EXTT9=
EXTT10=
PLAYORDER=
